<svg xmlns="http://www.w3.org/2000/svg" width="23.67" height="23.706" viewBox="0 0 23.67 23.706">
    <g data-name="Group 145">
        <path data-name="Path 34" d="M0 0h23.67v23.706H0z" style="fill:none"/>
        <path data-name="Path 35" d="M19.086 1.333H3.306a1.98 1.98 0 0 0-1.973 1.976v17.785l3.945-3.952h13.808a1.98 1.98 0 0 0 1.972-1.976V3.309a1.98 1.98 0 0 0-1.972-1.976zm0 13.833H4.46l-1.154 1.156V3.309h15.78zM6.265 8.25h1.972v1.976H6.265zm7.89 0h1.972v1.976h-1.972zm-3.945 0h1.972v1.976H10.21z" transform="translate(.639 .639)" style="fill:#adadad"/>
    </g>
</svg>
