<svg xmlns="http://www.w3.org/2000/svg" width="19" height="20" fill="none"><path fill-rule="evenodd" clip-rule="evenodd" d="M15.597 7.95H2.145c-.312 0-.566-.27-.566-.6 0-.332.254-.6.566-.6h13.452c.313 0 .566.268.566.6 0 .33-.253.6-.566.6m-3.37 3.124c-.312 0-.569-.269-.569-.6 0-.331.25-.6.563-.6h.006c.313 0 .566.269.566.6 0 .331-.253.6-.566.6m-3.348 0c-.313 0-.57-.269-.57-.6 0-.331.25-.6.563-.6h.007c.312 0 .566.269.566.6 0 .331-.254.6-.566.6m-3.356 0c-.313 0-.57-.269-.57-.6 0-.331.25-.6.563-.6h.007c.312 0 .566.269.566.6 0 .331-.254.6-.566.6m6.704 3.109c-.312 0-.569-.268-.569-.6 0-.33.25-.6.563-.6h.006c.313 0 .566.27.566.6 0 .332-.253.6-.566.6m-3.348 0c-.313 0-.57-.268-.57-.6 0-.33.25-.6.563-.6h.007c.312 0 .566.27.566.6 0 .332-.254.6-.566.6m-3.356 0c-.313 0-.57-.268-.57-.6 0-.33.25-.6.563-.6h.007c.312 0 .566.27.566.6 0 .332-.254.6-.566.6m6.397-9.524c-.313 0-.566-.269-.566-.6V1.426c0-.331.253-.6.566-.6.312 0 .566.269.566.6V4.06c0 .331-.254.6-.566.6m-6.097-.001c-.313 0-.566-.269-.566-.6V1.426c0-.331.253-.6.566-.6.312 0 .566.269.566.6V4.06c0 .331-.254.6-.566.6" fill="#7B7B7B"/><mask id="mask0" maskUnits="userSpaceOnUse" x="1" y="2" width="16" height="17"><path fill-rule="evenodd" clip-rule="evenodd" d="M1.51 2.09h14.717v15.936H1.51V2.09z" fill="#fff"/></mask><g mask="url(#mask0)"><path fill-rule="evenodd" clip-rule="evenodd" d="M5.677 3.29c-1.957 0-3.035 1.106-3.035 3.115v7.239c0 2.053 1.078 3.182 3.035 3.182h6.383c1.957 0 3.035-1.109 3.035-3.121v-7.3c.003-.988-.248-1.756-.745-2.284-.512-.544-1.3-.832-2.283-.832h-6.39zm6.383 14.736H5.677c-2.57 0-4.167-1.679-4.167-4.382v-7.24c0-2.662 1.597-4.315 4.167-4.315h6.39c1.29 0 2.356.41 3.084 1.184.707.752 1.08 1.835 1.076 3.133v7.299c0 2.665-1.597 4.321-4.167 4.321z" fill="#7B7B7B"/></g></svg>